%TF.GenerationSoftware,KiCad,Pcbnew,10.0.3*%
%TF.CreationDate,2026-06-02T14:35:26+02:00*%
%TF.ProjectId,buck-converter,6275636b-2d63-46f6-9e76-65727465722e,rev?*%
%TF.SameCoordinates,Original*%
%TF.FileFunction,Legend,Top*%
%TF.FilePolarity,Positive*%
%FSLAX46Y46*%
G04 Gerber Fmt 4.6, Leading zero omitted, Abs format (unit mm)*
G04 Created by KiCad (PCBNEW 10.0.3) date 2026-06-02 14:35:26*
%MOMM*%
%LPD*%
G01*
G04 APERTURE LIST*
%ADD10C,0.100000*%
%ADD11C,0.150000*%
%ADD12C,0.120000*%
G04 APERTURE END LIST*
D10*
X104303884Y-96491466D02*
X105065789Y-96491466D01*
X175303884Y-96491466D02*
X176065789Y-96491466D01*
X104303884Y-91491466D02*
X105065789Y-91491466D01*
X104684836Y-91872419D02*
X104684836Y-91110514D01*
X175303884Y-91491466D02*
X176065789Y-91491466D01*
X175684836Y-91872419D02*
X175684836Y-91110514D01*
X171621860Y-100872419D02*
X171812336Y-100872419D01*
X171812336Y-100872419D02*
X171907574Y-100920038D01*
X171907574Y-100920038D02*
X172002812Y-101015276D01*
X172002812Y-101015276D02*
X172050431Y-101205752D01*
X172050431Y-101205752D02*
X172050431Y-101539085D01*
X172050431Y-101539085D02*
X172002812Y-101729561D01*
X172002812Y-101729561D02*
X171907574Y-101824800D01*
X171907574Y-101824800D02*
X171812336Y-101872419D01*
X171812336Y-101872419D02*
X171621860Y-101872419D01*
X171621860Y-101872419D02*
X171526622Y-101824800D01*
X171526622Y-101824800D02*
X171431384Y-101729561D01*
X171431384Y-101729561D02*
X171383765Y-101539085D01*
X171383765Y-101539085D02*
X171383765Y-101205752D01*
X171383765Y-101205752D02*
X171431384Y-101015276D01*
X171431384Y-101015276D02*
X171526622Y-100920038D01*
X171526622Y-100920038D02*
X171621860Y-100872419D01*
X172479003Y-100872419D02*
X172479003Y-101681942D01*
X172479003Y-101681942D02*
X172526622Y-101777180D01*
X172526622Y-101777180D02*
X172574241Y-101824800D01*
X172574241Y-101824800D02*
X172669479Y-101872419D01*
X172669479Y-101872419D02*
X172859955Y-101872419D01*
X172859955Y-101872419D02*
X172955193Y-101824800D01*
X172955193Y-101824800D02*
X173002812Y-101777180D01*
X173002812Y-101777180D02*
X173050431Y-101681942D01*
X173050431Y-101681942D02*
X173050431Y-100872419D01*
X173383765Y-100872419D02*
X173955193Y-100872419D01*
X173669479Y-101872419D02*
X173669479Y-100872419D01*
X175526622Y-100872419D02*
X175050432Y-100872419D01*
X175050432Y-100872419D02*
X175002813Y-101348609D01*
X175002813Y-101348609D02*
X175050432Y-101300990D01*
X175050432Y-101300990D02*
X175145670Y-101253371D01*
X175145670Y-101253371D02*
X175383765Y-101253371D01*
X175383765Y-101253371D02*
X175479003Y-101300990D01*
X175479003Y-101300990D02*
X175526622Y-101348609D01*
X175526622Y-101348609D02*
X175574241Y-101443847D01*
X175574241Y-101443847D02*
X175574241Y-101681942D01*
X175574241Y-101681942D02*
X175526622Y-101777180D01*
X175526622Y-101777180D02*
X175479003Y-101824800D01*
X175479003Y-101824800D02*
X175383765Y-101872419D01*
X175383765Y-101872419D02*
X175145670Y-101872419D01*
X175145670Y-101872419D02*
X175050432Y-101824800D01*
X175050432Y-101824800D02*
X175002813Y-101777180D01*
X175859956Y-100872419D02*
X176193289Y-101872419D01*
X176193289Y-101872419D02*
X176526622Y-100872419D01*
X104303884Y-101872419D02*
X104303884Y-100872419D01*
X104780074Y-101872419D02*
X104780074Y-100872419D01*
X104780074Y-100872419D02*
X105351502Y-101872419D01*
X105351502Y-101872419D02*
X105351502Y-100872419D01*
X107113407Y-101872419D02*
X106541979Y-101872419D01*
X106827693Y-101872419D02*
X106827693Y-100872419D01*
X106827693Y-100872419D02*
X106732455Y-101015276D01*
X106732455Y-101015276D02*
X106637217Y-101110514D01*
X106637217Y-101110514D02*
X106541979Y-101158133D01*
X107494360Y-100967657D02*
X107541979Y-100920038D01*
X107541979Y-100920038D02*
X107637217Y-100872419D01*
X107637217Y-100872419D02*
X107875312Y-100872419D01*
X107875312Y-100872419D02*
X107970550Y-100920038D01*
X107970550Y-100920038D02*
X108018169Y-100967657D01*
X108018169Y-100967657D02*
X108065788Y-101062895D01*
X108065788Y-101062895D02*
X108065788Y-101158133D01*
X108065788Y-101158133D02*
X108018169Y-101300990D01*
X108018169Y-101300990D02*
X107446741Y-101872419D01*
X107446741Y-101872419D02*
X108065788Y-101872419D01*
X108351503Y-100872419D02*
X108684836Y-101872419D01*
X108684836Y-101872419D02*
X109018169Y-100872419D01*
D11*
X105666666Y-113304819D02*
X105333333Y-112828628D01*
X105095238Y-113304819D02*
X105095238Y-112304819D01*
X105095238Y-112304819D02*
X105476190Y-112304819D01*
X105476190Y-112304819D02*
X105571428Y-112352438D01*
X105571428Y-112352438D02*
X105619047Y-112400057D01*
X105619047Y-112400057D02*
X105666666Y-112495295D01*
X105666666Y-112495295D02*
X105666666Y-112638152D01*
X105666666Y-112638152D02*
X105619047Y-112733390D01*
X105619047Y-112733390D02*
X105571428Y-112781009D01*
X105571428Y-112781009D02*
X105476190Y-112828628D01*
X105476190Y-112828628D02*
X105095238Y-112828628D01*
X106095238Y-112781009D02*
X106428571Y-112781009D01*
X106571428Y-113304819D02*
X106095238Y-113304819D01*
X106095238Y-113304819D02*
X106095238Y-112304819D01*
X106095238Y-112304819D02*
X106571428Y-112304819D01*
X107333333Y-112781009D02*
X107000000Y-112781009D01*
X107000000Y-113304819D02*
X107000000Y-112304819D01*
X107000000Y-112304819D02*
X107476190Y-112304819D01*
X108000000Y-112304819D02*
X108000000Y-112542914D01*
X107761905Y-112447676D02*
X108000000Y-112542914D01*
X108000000Y-112542914D02*
X108238095Y-112447676D01*
X107857143Y-112733390D02*
X108000000Y-112542914D01*
X108000000Y-112542914D02*
X108142857Y-112733390D01*
X108761905Y-112304819D02*
X108761905Y-112542914D01*
X108523810Y-112447676D02*
X108761905Y-112542914D01*
X108761905Y-112542914D02*
X109000000Y-112447676D01*
X108619048Y-112733390D02*
X108761905Y-112542914D01*
X108761905Y-112542914D02*
X108904762Y-112733390D01*
X171666666Y-113304819D02*
X171333333Y-112828628D01*
X171095238Y-113304819D02*
X171095238Y-112304819D01*
X171095238Y-112304819D02*
X171476190Y-112304819D01*
X171476190Y-112304819D02*
X171571428Y-112352438D01*
X171571428Y-112352438D02*
X171619047Y-112400057D01*
X171619047Y-112400057D02*
X171666666Y-112495295D01*
X171666666Y-112495295D02*
X171666666Y-112638152D01*
X171666666Y-112638152D02*
X171619047Y-112733390D01*
X171619047Y-112733390D02*
X171571428Y-112781009D01*
X171571428Y-112781009D02*
X171476190Y-112828628D01*
X171476190Y-112828628D02*
X171095238Y-112828628D01*
X172095238Y-112781009D02*
X172428571Y-112781009D01*
X172571428Y-113304819D02*
X172095238Y-113304819D01*
X172095238Y-113304819D02*
X172095238Y-112304819D01*
X172095238Y-112304819D02*
X172571428Y-112304819D01*
X173333333Y-112781009D02*
X173000000Y-112781009D01*
X173000000Y-113304819D02*
X173000000Y-112304819D01*
X173000000Y-112304819D02*
X173476190Y-112304819D01*
X174000000Y-112304819D02*
X174000000Y-112542914D01*
X173761905Y-112447676D02*
X174000000Y-112542914D01*
X174000000Y-112542914D02*
X174238095Y-112447676D01*
X173857143Y-112733390D02*
X174000000Y-112542914D01*
X174000000Y-112542914D02*
X174142857Y-112733390D01*
X174761905Y-112304819D02*
X174761905Y-112542914D01*
X174523810Y-112447676D02*
X174761905Y-112542914D01*
X174761905Y-112542914D02*
X175000000Y-112447676D01*
X174619048Y-112733390D02*
X174761905Y-112542914D01*
X174761905Y-112542914D02*
X174904762Y-112733390D01*
X171666666Y-80304819D02*
X171333333Y-79828628D01*
X171095238Y-80304819D02*
X171095238Y-79304819D01*
X171095238Y-79304819D02*
X171476190Y-79304819D01*
X171476190Y-79304819D02*
X171571428Y-79352438D01*
X171571428Y-79352438D02*
X171619047Y-79400057D01*
X171619047Y-79400057D02*
X171666666Y-79495295D01*
X171666666Y-79495295D02*
X171666666Y-79638152D01*
X171666666Y-79638152D02*
X171619047Y-79733390D01*
X171619047Y-79733390D02*
X171571428Y-79781009D01*
X171571428Y-79781009D02*
X171476190Y-79828628D01*
X171476190Y-79828628D02*
X171095238Y-79828628D01*
X172095238Y-79781009D02*
X172428571Y-79781009D01*
X172571428Y-80304819D02*
X172095238Y-80304819D01*
X172095238Y-80304819D02*
X172095238Y-79304819D01*
X172095238Y-79304819D02*
X172571428Y-79304819D01*
X173333333Y-79781009D02*
X173000000Y-79781009D01*
X173000000Y-80304819D02*
X173000000Y-79304819D01*
X173000000Y-79304819D02*
X173476190Y-79304819D01*
X174000000Y-79304819D02*
X174000000Y-79542914D01*
X173761905Y-79447676D02*
X174000000Y-79542914D01*
X174000000Y-79542914D02*
X174238095Y-79447676D01*
X173857143Y-79733390D02*
X174000000Y-79542914D01*
X174000000Y-79542914D02*
X174142857Y-79733390D01*
X174761905Y-79304819D02*
X174761905Y-79542914D01*
X174523810Y-79447676D02*
X174761905Y-79542914D01*
X174761905Y-79542914D02*
X175000000Y-79447676D01*
X174619048Y-79733390D02*
X174761905Y-79542914D01*
X174761905Y-79542914D02*
X174904762Y-79733390D01*
X105666666Y-80304819D02*
X105333333Y-79828628D01*
X105095238Y-80304819D02*
X105095238Y-79304819D01*
X105095238Y-79304819D02*
X105476190Y-79304819D01*
X105476190Y-79304819D02*
X105571428Y-79352438D01*
X105571428Y-79352438D02*
X105619047Y-79400057D01*
X105619047Y-79400057D02*
X105666666Y-79495295D01*
X105666666Y-79495295D02*
X105666666Y-79638152D01*
X105666666Y-79638152D02*
X105619047Y-79733390D01*
X105619047Y-79733390D02*
X105571428Y-79781009D01*
X105571428Y-79781009D02*
X105476190Y-79828628D01*
X105476190Y-79828628D02*
X105095238Y-79828628D01*
X106095238Y-79781009D02*
X106428571Y-79781009D01*
X106571428Y-80304819D02*
X106095238Y-80304819D01*
X106095238Y-80304819D02*
X106095238Y-79304819D01*
X106095238Y-79304819D02*
X106571428Y-79304819D01*
X107333333Y-79781009D02*
X107000000Y-79781009D01*
X107000000Y-80304819D02*
X107000000Y-79304819D01*
X107000000Y-79304819D02*
X107476190Y-79304819D01*
X108000000Y-79304819D02*
X108000000Y-79542914D01*
X107761905Y-79447676D02*
X108000000Y-79542914D01*
X108000000Y-79542914D02*
X108238095Y-79447676D01*
X107857143Y-79733390D02*
X108000000Y-79542914D01*
X108000000Y-79542914D02*
X108142857Y-79733390D01*
X108761905Y-79304819D02*
X108761905Y-79542914D01*
X108523810Y-79447676D02*
X108761905Y-79542914D01*
X108761905Y-79542914D02*
X109000000Y-79447676D01*
X108619048Y-79733390D02*
X108761905Y-79542914D01*
X108761905Y-79542914D02*
X108904762Y-79733390D01*
X156833333Y-100059580D02*
X156785714Y-100107200D01*
X156785714Y-100107200D02*
X156642857Y-100154819D01*
X156642857Y-100154819D02*
X156547619Y-100154819D01*
X156547619Y-100154819D02*
X156404762Y-100107200D01*
X156404762Y-100107200D02*
X156309524Y-100011961D01*
X156309524Y-100011961D02*
X156261905Y-99916723D01*
X156261905Y-99916723D02*
X156214286Y-99726247D01*
X156214286Y-99726247D02*
X156214286Y-99583390D01*
X156214286Y-99583390D02*
X156261905Y-99392914D01*
X156261905Y-99392914D02*
X156309524Y-99297676D01*
X156309524Y-99297676D02*
X156404762Y-99202438D01*
X156404762Y-99202438D02*
X156547619Y-99154819D01*
X156547619Y-99154819D02*
X156642857Y-99154819D01*
X156642857Y-99154819D02*
X156785714Y-99202438D01*
X156785714Y-99202438D02*
X156833333Y-99250057D01*
X157214286Y-99250057D02*
X157261905Y-99202438D01*
X157261905Y-99202438D02*
X157357143Y-99154819D01*
X157357143Y-99154819D02*
X157595238Y-99154819D01*
X157595238Y-99154819D02*
X157690476Y-99202438D01*
X157690476Y-99202438D02*
X157738095Y-99250057D01*
X157738095Y-99250057D02*
X157785714Y-99345295D01*
X157785714Y-99345295D02*
X157785714Y-99440533D01*
X157785714Y-99440533D02*
X157738095Y-99583390D01*
X157738095Y-99583390D02*
X157166667Y-100154819D01*
X157166667Y-100154819D02*
X157785714Y-100154819D01*
X174602319Y-94328333D02*
X175316604Y-94328333D01*
X175316604Y-94328333D02*
X175459461Y-94375952D01*
X175459461Y-94375952D02*
X175554700Y-94471190D01*
X175554700Y-94471190D02*
X175602319Y-94614047D01*
X175602319Y-94614047D02*
X175602319Y-94709285D01*
X175602319Y-93328333D02*
X175602319Y-93899761D01*
X175602319Y-93614047D02*
X174602319Y-93614047D01*
X174602319Y-93614047D02*
X174745176Y-93709285D01*
X174745176Y-93709285D02*
X174840414Y-93804523D01*
X174840414Y-93804523D02*
X174888033Y-93899761D01*
X142833333Y-103054819D02*
X142357143Y-103054819D01*
X142357143Y-103054819D02*
X142357143Y-102054819D01*
X143690476Y-103054819D02*
X143119048Y-103054819D01*
X143404762Y-103054819D02*
X143404762Y-102054819D01*
X143404762Y-102054819D02*
X143309524Y-102197676D01*
X143309524Y-102197676D02*
X143214286Y-102292914D01*
X143214286Y-102292914D02*
X143119048Y-102340533D01*
X134554819Y-106738094D02*
X133554819Y-106738094D01*
X133554819Y-106738094D02*
X133554819Y-106499999D01*
X133554819Y-106499999D02*
X133602438Y-106357142D01*
X133602438Y-106357142D02*
X133697676Y-106261904D01*
X133697676Y-106261904D02*
X133792914Y-106214285D01*
X133792914Y-106214285D02*
X133983390Y-106166666D01*
X133983390Y-106166666D02*
X134126247Y-106166666D01*
X134126247Y-106166666D02*
X134316723Y-106214285D01*
X134316723Y-106214285D02*
X134411961Y-106261904D01*
X134411961Y-106261904D02*
X134507200Y-106357142D01*
X134507200Y-106357142D02*
X134554819Y-106499999D01*
X134554819Y-106499999D02*
X134554819Y-106738094D01*
X134554819Y-105214285D02*
X134554819Y-105785713D01*
X134554819Y-105499999D02*
X133554819Y-105499999D01*
X133554819Y-105499999D02*
X133697676Y-105595237D01*
X133697676Y-105595237D02*
X133792914Y-105690475D01*
X133792914Y-105690475D02*
X133840533Y-105785713D01*
X132559580Y-94166666D02*
X132607200Y-94214285D01*
X132607200Y-94214285D02*
X132654819Y-94357142D01*
X132654819Y-94357142D02*
X132654819Y-94452380D01*
X132654819Y-94452380D02*
X132607200Y-94595237D01*
X132607200Y-94595237D02*
X132511961Y-94690475D01*
X132511961Y-94690475D02*
X132416723Y-94738094D01*
X132416723Y-94738094D02*
X132226247Y-94785713D01*
X132226247Y-94785713D02*
X132083390Y-94785713D01*
X132083390Y-94785713D02*
X131892914Y-94738094D01*
X131892914Y-94738094D02*
X131797676Y-94690475D01*
X131797676Y-94690475D02*
X131702438Y-94595237D01*
X131702438Y-94595237D02*
X131654819Y-94452380D01*
X131654819Y-94452380D02*
X131654819Y-94357142D01*
X131654819Y-94357142D02*
X131702438Y-94214285D01*
X131702438Y-94214285D02*
X131750057Y-94166666D01*
X132654819Y-93214285D02*
X132654819Y-93785713D01*
X132654819Y-93499999D02*
X131654819Y-93499999D01*
X131654819Y-93499999D02*
X131797676Y-93595237D01*
X131797676Y-93595237D02*
X131892914Y-93690475D01*
X131892914Y-93690475D02*
X131940533Y-93785713D01*
X142888095Y-88504819D02*
X142888095Y-89314342D01*
X142888095Y-89314342D02*
X142935714Y-89409580D01*
X142935714Y-89409580D02*
X142983333Y-89457200D01*
X142983333Y-89457200D02*
X143078571Y-89504819D01*
X143078571Y-89504819D02*
X143269047Y-89504819D01*
X143269047Y-89504819D02*
X143364285Y-89457200D01*
X143364285Y-89457200D02*
X143411904Y-89409580D01*
X143411904Y-89409580D02*
X143459523Y-89314342D01*
X143459523Y-89314342D02*
X143459523Y-88504819D01*
X144459523Y-89504819D02*
X143888095Y-89504819D01*
X144173809Y-89504819D02*
X144173809Y-88504819D01*
X144173809Y-88504819D02*
X144078571Y-88647676D01*
X144078571Y-88647676D02*
X143983333Y-88742914D01*
X143983333Y-88742914D02*
X143888095Y-88790533D01*
X117602319Y-94328333D02*
X118316604Y-94328333D01*
X118316604Y-94328333D02*
X118459461Y-94375952D01*
X118459461Y-94375952D02*
X118554700Y-94471190D01*
X118554700Y-94471190D02*
X118602319Y-94614047D01*
X118602319Y-94614047D02*
X118602319Y-94709285D01*
X117697557Y-93899761D02*
X117649938Y-93852142D01*
X117649938Y-93852142D02*
X117602319Y-93756904D01*
X117602319Y-93756904D02*
X117602319Y-93518809D01*
X117602319Y-93518809D02*
X117649938Y-93423571D01*
X117649938Y-93423571D02*
X117697557Y-93375952D01*
X117697557Y-93375952D02*
X117792795Y-93328333D01*
X117792795Y-93328333D02*
X117888033Y-93328333D01*
X117888033Y-93328333D02*
X118030890Y-93375952D01*
X118030890Y-93375952D02*
X118602319Y-93947380D01*
X118602319Y-93947380D02*
X118602319Y-93328333D01*
%TO.C,C2*%
D12*
X161360000Y-109360000D02*
X161360000Y-106510000D01*
X161360000Y-100640000D02*
X161360000Y-103490000D01*
X153704437Y-109360000D02*
X161360000Y-109360000D01*
X153704437Y-100640000D02*
X161360000Y-100640000D01*
X152640000Y-108295563D02*
X153704437Y-109360000D01*
X152640000Y-108295563D02*
X152640000Y-106510000D01*
X152640000Y-101704437D02*
X153704437Y-100640000D01*
X152640000Y-101704437D02*
X152640000Y-103490000D01*
X151900000Y-101990000D02*
X151900000Y-102990000D01*
X151400000Y-102490000D02*
X152400000Y-102490000D01*
%TO.C,J1*%
X174147500Y-88795000D02*
X174147500Y-99195000D01*
X171127500Y-88795000D02*
X171127500Y-99195000D01*
X166227500Y-88795000D02*
X166227500Y-99195000D01*
X164727500Y-88795000D02*
X164727500Y-99195000D01*
X164107500Y-88795000D02*
X174147500Y-88795000D01*
X164107500Y-91155000D02*
X164107500Y-88795000D01*
X174147500Y-99195000D02*
X164107500Y-99195000D01*
X164107500Y-99195000D02*
X164107500Y-91755000D01*
X164107500Y-91455000D02*
X163497500Y-91895000D01*
X163497500Y-91015000D01*
X164107500Y-91455000D01*
G36*
X164107500Y-91455000D02*
G01*
X163497500Y-91895000D01*
X163497500Y-91015000D01*
X164107500Y-91455000D01*
G37*
%TO.C,L1*%
X149300000Y-116300000D02*
X136700000Y-116300000D01*
X149300000Y-113300000D02*
X149300000Y-116300000D01*
X149300000Y-103700000D02*
X149300000Y-106700000D01*
X136700000Y-116300000D02*
X136700000Y-113300000D01*
X136700000Y-106700000D02*
X136700000Y-103700000D01*
X136700000Y-103700000D02*
X149300000Y-103700000D01*
%TO.C,D1*%
X126750000Y-101090000D02*
X126750000Y-109600000D01*
X126750000Y-101090000D02*
X133250000Y-101090000D01*
X133250000Y-101090000D02*
X133250000Y-109600000D01*
%TO.C,C1*%
X120740000Y-99260000D02*
X124490000Y-99260000D01*
X131260000Y-99260000D02*
X127510000Y-99260000D01*
X120740000Y-89804437D02*
X120740000Y-99260000D01*
X131260000Y-89804437D02*
X131260000Y-99260000D01*
X121804437Y-88740000D02*
X120740000Y-89804437D01*
X121804437Y-88740000D02*
X124490000Y-88740000D01*
X130195563Y-88740000D02*
X131260000Y-89804437D01*
X130195563Y-88740000D02*
X127510000Y-88740000D01*
X129385000Y-87875000D02*
X128135000Y-87875000D01*
X128760000Y-87250000D02*
X128760000Y-88500000D01*
%TO.C,U1*%
X138825000Y-90500000D02*
X138825000Y-91450000D01*
X138825000Y-100900000D02*
X138825000Y-99950000D01*
X140190000Y-90500000D02*
X138825000Y-90500000D01*
X140190000Y-100900000D02*
X138825000Y-100900000D01*
X136000000Y-91490000D02*
X135660000Y-91020000D01*
X136340000Y-91020000D01*
X136000000Y-91490000D01*
G36*
X136000000Y-91490000D02*
G01*
X135660000Y-91020000D01*
X136340000Y-91020000D01*
X136000000Y-91490000D01*
G37*
%TO.C,J2*%
X107107500Y-91455000D02*
X106497500Y-91895000D01*
X106497500Y-91015000D01*
X107107500Y-91455000D01*
G36*
X107107500Y-91455000D02*
G01*
X106497500Y-91895000D01*
X106497500Y-91015000D01*
X107107500Y-91455000D01*
G37*
X107107500Y-99195000D02*
X107107500Y-91755000D01*
X117147500Y-99195000D02*
X107107500Y-99195000D01*
X107107500Y-91155000D02*
X107107500Y-88795000D01*
X107107500Y-88795000D02*
X117147500Y-88795000D01*
X107727500Y-88795000D02*
X107727500Y-99195000D01*
X109227500Y-88795000D02*
X109227500Y-99195000D01*
X114127500Y-88795000D02*
X114127500Y-99195000D01*
X117147500Y-88795000D02*
X117147500Y-99195000D01*
%TD*%
M02*
