%TF.GenerationSoftware,KiCad,Pcbnew,10.0.3*%
%TF.CreationDate,2026-06-02T14:35:26+02:00*%
%TF.ProjectId,buck-converter,6275636b-2d63-46f6-9e76-65727465722e,rev?*%
%TF.SameCoordinates,Original*%
%TF.FileFunction,Copper,L1,Top*%
%TF.FilePolarity,Positive*%
%FSLAX46Y46*%
G04 Gerber Fmt 4.6, Leading zero omitted, Abs format (unit mm)*
G04 Created by KiCad (PCBNEW 10.0.3) date 2026-06-02 14:35:26*
%MOMM*%
%LPD*%
G01*
G04 APERTURE LIST*
G04 Aperture macros list*
%AMRoundRect*
0 Rectangle with rounded corners*
0 $1 Rounding radius*
0 $2 $3 $4 $5 $6 $7 $8 $9 X,Y pos of 4 corners*
0 Add a 4 corners polygon primitive as box body*
4,1,4,$2,$3,$4,$5,$6,$7,$8,$9,$2,$3,0*
0 Add four circle primitives for the rounded corners*
1,1,$1+$1,$2,$3*
1,1,$1+$1,$4,$5*
1,1,$1+$1,$6,$7*
1,1,$1+$1,$8,$9*
0 Add four rect primitives between the rounded corners*
20,1,$1+$1,$2,$3,$4,$5,0*
20,1,$1+$1,$4,$5,$6,$7,0*
20,1,$1+$1,$6,$7,$8,$9,0*
20,1,$1+$1,$8,$9,$2,$3,0*%
G04 Aperture macros list end*
%TA.AperFunction,SMDPad,CuDef*%
%ADD10RoundRect,0.250000X-1.950000X-1.000000X1.950000X-1.000000X1.950000X1.000000X-1.950000X1.000000X0*%
%TD*%
%TA.AperFunction,ComponentPad*%
%ADD11RoundRect,0.250000X-1.050000X1.050000X-1.050000X-1.050000X1.050000X-1.050000X1.050000X1.050000X0*%
%TD*%
%TA.AperFunction,ComponentPad*%
%ADD12C,2.600000*%
%TD*%
%TA.AperFunction,SMDPad,CuDef*%
%ADD13R,2.900000X5.400000*%
%TD*%
%TA.AperFunction,SMDPad,CuDef*%
%ADD14RoundRect,0.250000X-1.400000X-1.000000X1.400000X-1.000000X1.400000X1.000000X-1.400000X1.000000X0*%
%TD*%
%TA.AperFunction,SMDPad,CuDef*%
%ADD15RoundRect,0.250000X-1.000000X1.750000X-1.000000X-1.750000X1.000000X-1.750000X1.000000X1.750000X0*%
%TD*%
%TA.AperFunction,SMDPad,CuDef*%
%ADD16RoundRect,0.250000X-2.050000X-0.300000X2.050000X-0.300000X2.050000X0.300000X-2.050000X0.300000X0*%
%TD*%
%TA.AperFunction,SMDPad,CuDef*%
%ADD17RoundRect,0.250002X-4.449998X-5.149998X4.449998X-5.149998X4.449998X5.149998X-4.449998X5.149998X0*%
%TD*%
%TA.AperFunction,Conductor*%
%ADD18C,1.500000*%
%TD*%
%TA.AperFunction,Conductor*%
%ADD19C,0.200000*%
%TD*%
G04 APERTURE END LIST*
D10*
%TO.P,C2,2*%
%TO.N,GND*%
X160700000Y-105000000D03*
%TO.P,C2,1*%
%TO.N,Net-(J1-Pin_1)*%
X153300000Y-105000000D03*
%TD*%
D11*
%TO.P,J1,1,Pin_1_1*%
%TO.N,Net-(J1-Pin_1)*%
X168827500Y-91455000D03*
D12*
%TO.P,J1,2,Pin_2_2*%
%TO.N,GND*%
X168827500Y-96535000D03*
%TD*%
D13*
%TO.P,L1,2,2_2*%
%TO.N,Net-(J1-Pin_1)*%
X147950000Y-110000000D03*
%TO.P,L1,1,1_1*%
%TO.N,Net-(D1-K)*%
X138050000Y-110000000D03*
%TD*%
D14*
%TO.P,D1,2,A_2*%
%TO.N,GND*%
X130000000Y-109400000D03*
%TO.P,D1,1,K_1*%
%TO.N,Net-(D1-K)*%
X130000000Y-102600000D03*
%TD*%
D15*
%TO.P,C1,2*%
%TO.N,GND*%
X126000000Y-98000000D03*
%TO.P,C1,1*%
%TO.N,Net-(J2-Pin_1)*%
X126000000Y-90000000D03*
%TD*%
D16*
%TO.P,U1,1,VIN_1*%
%TO.N,Net-(J2-Pin_1)*%
X136000000Y-92300000D03*
%TO.P,U1,2,OUT_2*%
%TO.N,Net-(D1-K)*%
X136000000Y-94000000D03*
%TO.P,U1,3,GND_3*%
%TO.N,GND*%
X136000000Y-95700000D03*
D17*
X145150000Y-95700000D03*
D16*
%TO.P,U1,4,FB_4*%
%TO.N,Net-(J1-Pin_1)*%
X136000000Y-97400000D03*
%TO.P,U1,5,~{ON}/OFF_5*%
%TO.N,GND*%
X136000000Y-99100000D03*
%TD*%
D12*
%TO.P,J2,2,Pin_2_2*%
%TO.N,GND*%
X111827500Y-96535000D03*
D11*
%TO.P,J2,1,Pin_1_1*%
%TO.N,Net-(J2-Pin_1)*%
X111827500Y-91455000D03*
%TD*%
%TO.N,Net-(D1-K)*%
D18*
X130650000Y-102600000D02*
X138050000Y-110000000D01*
X130000000Y-102600000D02*
X130650000Y-102600000D01*
X130000000Y-97646016D02*
X130000000Y-102600000D01*
X133646016Y-94000000D02*
X130000000Y-97646016D01*
X136000000Y-94000000D02*
X133646016Y-94000000D01*
%TO.N,Net-(J2-Pin_1)*%
X113282500Y-90000000D02*
X111827500Y-91455000D01*
X126000000Y-90000000D02*
X113282500Y-90000000D01*
X128300000Y-92300000D02*
X126000000Y-90000000D01*
X136000000Y-92300000D02*
X128300000Y-92300000D01*
%TO.N,Net-(J1-Pin_1)*%
D19*
X166845000Y-91455000D02*
X168827500Y-91455000D01*
X153300000Y-105000000D02*
X166845000Y-91455000D01*
X148300000Y-110000000D02*
X153300000Y-105000000D01*
X147950000Y-110000000D02*
X148300000Y-110000000D01*
X140150000Y-102200000D02*
X147950000Y-110000000D01*
X140150000Y-99250000D02*
X140150000Y-102200000D01*
X138300000Y-97400000D02*
X140150000Y-99250000D01*
X136000000Y-97400000D02*
X138300000Y-97400000D01*
%TD*%
%TA.AperFunction,Conductor*%
%TO.N,GND*%
G36*
X177943039Y-79019685D02*
G01*
X177988794Y-79072489D01*
X178000000Y-79124000D01*
X178000000Y-121876000D01*
X177980315Y-121943039D01*
X177927511Y-121988794D01*
X177876000Y-122000000D01*
X102124000Y-122000000D01*
X102056961Y-121980315D01*
X102011206Y-121927511D01*
X102000000Y-121876000D01*
X102000000Y-116878711D01*
X105149500Y-116878711D01*
X105149500Y-117121288D01*
X105181161Y-117361785D01*
X105243947Y-117596104D01*
X105336773Y-117820205D01*
X105336776Y-117820212D01*
X105458064Y-118030289D01*
X105458066Y-118030292D01*
X105458067Y-118030293D01*
X105605733Y-118222736D01*
X105605739Y-118222743D01*
X105777256Y-118394260D01*
X105777262Y-118394265D01*
X105969711Y-118541936D01*
X106179788Y-118663224D01*
X106403900Y-118756054D01*
X106638211Y-118818838D01*
X106818586Y-118842584D01*
X106878711Y-118850500D01*
X106878712Y-118850500D01*
X107121289Y-118850500D01*
X107169388Y-118844167D01*
X107361789Y-118818838D01*
X107596100Y-118756054D01*
X107820212Y-118663224D01*
X108030289Y-118541936D01*
X108222738Y-118394265D01*
X108394265Y-118222738D01*
X108541936Y-118030289D01*
X108663224Y-117820212D01*
X108756054Y-117596100D01*
X108818838Y-117361789D01*
X108850500Y-117121288D01*
X108850500Y-116878712D01*
X108850500Y-116878711D01*
X171149500Y-116878711D01*
X171149500Y-117121288D01*
X171181161Y-117361785D01*
X171243947Y-117596104D01*
X171336773Y-117820205D01*
X171336776Y-117820212D01*
X171458064Y-118030289D01*
X171458066Y-118030292D01*
X171458067Y-118030293D01*
X171605733Y-118222736D01*
X171605739Y-118222743D01*
X171777256Y-118394260D01*
X171777262Y-118394265D01*
X171969711Y-118541936D01*
X172179788Y-118663224D01*
X172403900Y-118756054D01*
X172638211Y-118818838D01*
X172818586Y-118842584D01*
X172878711Y-118850500D01*
X172878712Y-118850500D01*
X173121289Y-118850500D01*
X173169388Y-118844167D01*
X173361789Y-118818838D01*
X173596100Y-118756054D01*
X173820212Y-118663224D01*
X174030289Y-118541936D01*
X174222738Y-118394265D01*
X174394265Y-118222738D01*
X174541936Y-118030289D01*
X174663224Y-117820212D01*
X174756054Y-117596100D01*
X174818838Y-117361789D01*
X174850500Y-117121288D01*
X174850500Y-116878712D01*
X174818838Y-116638211D01*
X174756054Y-116403900D01*
X174663224Y-116179788D01*
X174541936Y-115969711D01*
X174394265Y-115777262D01*
X174394260Y-115777256D01*
X174222743Y-115605739D01*
X174222736Y-115605733D01*
X174030293Y-115458067D01*
X174030292Y-115458066D01*
X174030289Y-115458064D01*
X173820212Y-115336776D01*
X173820205Y-115336773D01*
X173596104Y-115243947D01*
X173361785Y-115181161D01*
X173121289Y-115149500D01*
X173121288Y-115149500D01*
X172878712Y-115149500D01*
X172878711Y-115149500D01*
X172638214Y-115181161D01*
X172403895Y-115243947D01*
X172179794Y-115336773D01*
X172179785Y-115336777D01*
X171969706Y-115458067D01*
X171777263Y-115605733D01*
X171777256Y-115605739D01*
X171605739Y-115777256D01*
X171605733Y-115777263D01*
X171458067Y-115969706D01*
X171336777Y-116179785D01*
X171336773Y-116179794D01*
X171243947Y-116403895D01*
X171181161Y-116638214D01*
X171149500Y-116878711D01*
X108850500Y-116878711D01*
X108818838Y-116638211D01*
X108756054Y-116403900D01*
X108663224Y-116179788D01*
X108541936Y-115969711D01*
X108394265Y-115777262D01*
X108394260Y-115777256D01*
X108222743Y-115605739D01*
X108222736Y-115605733D01*
X108030293Y-115458067D01*
X108030292Y-115458066D01*
X108030289Y-115458064D01*
X107820212Y-115336776D01*
X107820205Y-115336773D01*
X107596104Y-115243947D01*
X107361785Y-115181161D01*
X107121289Y-115149500D01*
X107121288Y-115149500D01*
X106878712Y-115149500D01*
X106878711Y-115149500D01*
X106638214Y-115181161D01*
X106403895Y-115243947D01*
X106179794Y-115336773D01*
X106179785Y-115336777D01*
X105969706Y-115458067D01*
X105777263Y-115605733D01*
X105777256Y-115605739D01*
X105605739Y-115777256D01*
X105605733Y-115777263D01*
X105458067Y-115969706D01*
X105336777Y-116179785D01*
X105336773Y-116179794D01*
X105243947Y-116403895D01*
X105181161Y-116638214D01*
X105149500Y-116878711D01*
X102000000Y-116878711D01*
X102000000Y-110449986D01*
X127850001Y-110449986D01*
X127860494Y-110552697D01*
X127915641Y-110719119D01*
X127915643Y-110719124D01*
X128007684Y-110868345D01*
X128131654Y-110992315D01*
X128280875Y-111084356D01*
X128280880Y-111084358D01*
X128447302Y-111139505D01*
X128447309Y-111139506D01*
X128550019Y-111149999D01*
X129749999Y-111149999D01*
X130250000Y-111149999D01*
X131449972Y-111149999D01*
X131449986Y-111149998D01*
X131552697Y-111139505D01*
X131719119Y-111084358D01*
X131719124Y-111084356D01*
X131868345Y-110992315D01*
X131992315Y-110868345D01*
X132084356Y-110719124D01*
X132084358Y-110719119D01*
X132139505Y-110552697D01*
X132139506Y-110552690D01*
X132149999Y-110449986D01*
X132150000Y-110449973D01*
X132150000Y-109650000D01*
X130250000Y-109650000D01*
X130250000Y-111149999D01*
X129749999Y-111149999D01*
X129750000Y-111149998D01*
X129750000Y-109650000D01*
X127850001Y-109650000D01*
X127850001Y-110449986D01*
X102000000Y-110449986D01*
X102000000Y-108350013D01*
X127850000Y-108350013D01*
X127850000Y-109150000D01*
X129750000Y-109150000D01*
X130250000Y-109150000D01*
X132149999Y-109150000D01*
X132149999Y-108350028D01*
X132149998Y-108350013D01*
X132139505Y-108247302D01*
X132084358Y-108080880D01*
X132084356Y-108080875D01*
X131992315Y-107931654D01*
X131868345Y-107807684D01*
X131719124Y-107715643D01*
X131719119Y-107715641D01*
X131552697Y-107660494D01*
X131552690Y-107660493D01*
X131449986Y-107650000D01*
X130250000Y-107650000D01*
X130250000Y-109150000D01*
X129750000Y-109150000D01*
X129750000Y-107650000D01*
X128550028Y-107650000D01*
X128550012Y-107650001D01*
X128447302Y-107660494D01*
X128280880Y-107715641D01*
X128280875Y-107715643D01*
X128131654Y-107807684D01*
X128007684Y-107931654D01*
X127915643Y-108080875D01*
X127915641Y-108080880D01*
X127860494Y-108247302D01*
X127860493Y-108247309D01*
X127850000Y-108350013D01*
X102000000Y-108350013D01*
X102000000Y-99799986D01*
X124250001Y-99799986D01*
X124260494Y-99902697D01*
X124315641Y-100069119D01*
X124315643Y-100069124D01*
X124407684Y-100218345D01*
X124531654Y-100342315D01*
X124680875Y-100434356D01*
X124680880Y-100434358D01*
X124847302Y-100489505D01*
X124847309Y-100489506D01*
X124950019Y-100499999D01*
X125749999Y-100499999D01*
X126250000Y-100499999D01*
X127049972Y-100499999D01*
X127049986Y-100499998D01*
X127152697Y-100489505D01*
X127319119Y-100434358D01*
X127319124Y-100434356D01*
X127468345Y-100342315D01*
X127592315Y-100218345D01*
X127684356Y-100069124D01*
X127684358Y-100069119D01*
X127739505Y-99902697D01*
X127739506Y-99902690D01*
X127749999Y-99799986D01*
X127750000Y-99799973D01*
X127750000Y-98250000D01*
X126250000Y-98250000D01*
X126250000Y-100499999D01*
X125749999Y-100499999D01*
X125750000Y-100499998D01*
X125750000Y-98250000D01*
X124250001Y-98250000D01*
X124250001Y-99799986D01*
X102000000Y-99799986D01*
X102000000Y-96417014D01*
X110027500Y-96417014D01*
X110027500Y-96652985D01*
X110058299Y-96886914D01*
X110119370Y-97114837D01*
X110209660Y-97332819D01*
X110209665Y-97332828D01*
X110327644Y-97537171D01*
X110327645Y-97537172D01*
X110390221Y-97618723D01*
X111226458Y-96782487D01*
X111251478Y-96842890D01*
X111322612Y-96949351D01*
X111413149Y-97039888D01*
X111519610Y-97111022D01*
X111580011Y-97136041D01*
X110743775Y-97972277D01*
X110825327Y-98034854D01*
X110825328Y-98034855D01*
X111029671Y-98152834D01*
X111029680Y-98152839D01*
X111247663Y-98243129D01*
X111247661Y-98243129D01*
X111475585Y-98304200D01*
X111709514Y-98334999D01*
X111709529Y-98335000D01*
X111945471Y-98335000D01*
X111945485Y-98334999D01*
X112179414Y-98304200D01*
X112407337Y-98243129D01*
X112625319Y-98152839D01*
X112625328Y-98152834D01*
X112731993Y-98091251D01*
X112731994Y-98091250D01*
X112829678Y-98034852D01*
X112911223Y-97972279D01*
X112911223Y-97972276D01*
X112074987Y-97136041D01*
X112135390Y-97111022D01*
X112241851Y-97039888D01*
X112332388Y-96949351D01*
X112403522Y-96842890D01*
X112428541Y-96782487D01*
X113264776Y-97618723D01*
X113264779Y-97618723D01*
X113327350Y-97537181D01*
X113445334Y-97332828D01*
X113445339Y-97332819D01*
X113535629Y-97114837D01*
X113596700Y-96886914D01*
X113627499Y-96652985D01*
X113627500Y-96652971D01*
X113627500Y-96417028D01*
X113627499Y-96417014D01*
X113600646Y-96213050D01*
X113598929Y-96200013D01*
X124250000Y-96200013D01*
X124250000Y-97750000D01*
X125750000Y-97750000D01*
X126250000Y-97750000D01*
X127749999Y-97750000D01*
X127749999Y-96200028D01*
X127749998Y-96200013D01*
X127739505Y-96097302D01*
X127684358Y-95930880D01*
X127684356Y-95930875D01*
X127592315Y-95781654D01*
X127468345Y-95657684D01*
X127319124Y-95565643D01*
X127319119Y-95565641D01*
X127152697Y-95510494D01*
X127152690Y-95510493D01*
X127049986Y-95500000D01*
X126250000Y-95500000D01*
X126250000Y-97750000D01*
X125750000Y-97750000D01*
X125750000Y-95500000D01*
X124950028Y-95500000D01*
X124950012Y-95500001D01*
X124847302Y-95510494D01*
X124680880Y-95565641D01*
X124680875Y-95565643D01*
X124531654Y-95657684D01*
X124407684Y-95781654D01*
X124315643Y-95930875D01*
X124315641Y-95930880D01*
X124260494Y-96097302D01*
X124260493Y-96097309D01*
X124250000Y-96200013D01*
X113598929Y-96200013D01*
X113596700Y-96183085D01*
X113535629Y-95955162D01*
X113445339Y-95737180D01*
X113445334Y-95737171D01*
X113327355Y-95532828D01*
X113327354Y-95532827D01*
X113264777Y-95451275D01*
X112428541Y-96287511D01*
X112403522Y-96227110D01*
X112332388Y-96120649D01*
X112241851Y-96030112D01*
X112135390Y-95958978D01*
X112074988Y-95933958D01*
X112911223Y-95097721D01*
X112829672Y-95035145D01*
X112829671Y-95035144D01*
X112625328Y-94917165D01*
X112625319Y-94917160D01*
X112407336Y-94826870D01*
X112407338Y-94826870D01*
X112179414Y-94765799D01*
X111945485Y-94735000D01*
X111709514Y-94735000D01*
X111475585Y-94765799D01*
X111247662Y-94826870D01*
X111029680Y-94917160D01*
X111029671Y-94917165D01*
X110825328Y-95035144D01*
X110825318Y-95035150D01*
X110743775Y-95097720D01*
X110743775Y-95097721D01*
X111580012Y-95933958D01*
X111519610Y-95958978D01*
X111413149Y-96030112D01*
X111322612Y-96120649D01*
X111251478Y-96227110D01*
X111226458Y-96287511D01*
X110390221Y-95451275D01*
X110390220Y-95451275D01*
X110327650Y-95532818D01*
X110327644Y-95532828D01*
X110209665Y-95737171D01*
X110209660Y-95737180D01*
X110119370Y-95955162D01*
X110058299Y-96183085D01*
X110027500Y-96417014D01*
X102000000Y-96417014D01*
X102000000Y-90354983D01*
X110027000Y-90354983D01*
X110027000Y-92555001D01*
X110027001Y-92555018D01*
X110037500Y-92657796D01*
X110037501Y-92657799D01*
X110068980Y-92752795D01*
X110092686Y-92824334D01*
X110184788Y-92973656D01*
X110308844Y-93097712D01*
X110458166Y-93189814D01*
X110624703Y-93244999D01*
X110727491Y-93255500D01*
X112927508Y-93255499D01*
X113030297Y-93244999D01*
X113196834Y-93189814D01*
X113346156Y-93097712D01*
X113470212Y-92973656D01*
X113562314Y-92824334D01*
X113617499Y-92657797D01*
X113628000Y-92555009D01*
X113627999Y-91474336D01*
X113636643Y-91444897D01*
X113643167Y-91414910D01*
X113646921Y-91409894D01*
X113647684Y-91407298D01*
X113664312Y-91386661D01*
X113764157Y-91286817D01*
X113825480Y-91253334D01*
X113851837Y-91250500D01*
X124125501Y-91250500D01*
X124192540Y-91270185D01*
X124238295Y-91322989D01*
X124249501Y-91374500D01*
X124249501Y-91800018D01*
X124260000Y-91902796D01*
X124260001Y-91902799D01*
X124315185Y-92069331D01*
X124315186Y-92069334D01*
X124407288Y-92218656D01*
X124531344Y-92342712D01*
X124680666Y-92434814D01*
X124847203Y-92489999D01*
X124949991Y-92500500D01*
X126680663Y-92500499D01*
X126747702Y-92520184D01*
X126768344Y-92536818D01*
X127485354Y-93253828D01*
X127644595Y-93369524D01*
X127727454Y-93411742D01*
X127819969Y-93458882D01*
X127819971Y-93458882D01*
X127819974Y-93458884D01*
X127920318Y-93491487D01*
X128007173Y-93519709D01*
X128201578Y-93550500D01*
X128201583Y-93550500D01*
X132027680Y-93550500D01*
X132094719Y-93570185D01*
X132140474Y-93622989D01*
X132150418Y-93692147D01*
X132121393Y-93755703D01*
X132115361Y-93762181D01*
X129046174Y-96831367D01*
X129046174Y-96831368D01*
X129046172Y-96831370D01*
X129005817Y-96886914D01*
X128930476Y-96990610D01*
X128840669Y-97166867D01*
X128839608Y-97170628D01*
X128780291Y-97353185D01*
X128780291Y-97353188D01*
X128749500Y-97547593D01*
X128749500Y-100725500D01*
X128729815Y-100792539D01*
X128677011Y-100838294D01*
X128625502Y-100849500D01*
X128549999Y-100849500D01*
X128549980Y-100849501D01*
X128447203Y-100860000D01*
X128447200Y-100860001D01*
X128280668Y-100915185D01*
X128280663Y-100915187D01*
X128131342Y-101007289D01*
X128007289Y-101131342D01*
X127915187Y-101280663D01*
X127915186Y-101280666D01*
X127860001Y-101447203D01*
X127860001Y-101447204D01*
X127860000Y-101447204D01*
X127849500Y-101549983D01*
X127849500Y-103650001D01*
X127849501Y-103650018D01*
X127860000Y-103752796D01*
X127860001Y-103752799D01*
X127915185Y-103919331D01*
X127915187Y-103919336D01*
X127934109Y-103950013D01*
X128007288Y-104068656D01*
X128131344Y-104192712D01*
X128280666Y-104284814D01*
X128447203Y-104339999D01*
X128549991Y-104350500D01*
X130580663Y-104350499D01*
X130647702Y-104370184D01*
X130668344Y-104386818D01*
X136063181Y-109781655D01*
X136096666Y-109842978D01*
X136099500Y-109869336D01*
X136099500Y-112747870D01*
X136099501Y-112747876D01*
X136105908Y-112807483D01*
X136156202Y-112942328D01*
X136156206Y-112942335D01*
X136242452Y-113057544D01*
X136242455Y-113057547D01*
X136357664Y-113143793D01*
X136357671Y-113143797D01*
X136492517Y-113194091D01*
X136492516Y-113194091D01*
X136499444Y-113194835D01*
X136552127Y-113200500D01*
X139547872Y-113200499D01*
X139607483Y-113194091D01*
X139742331Y-113143796D01*
X139857546Y-113057546D01*
X139943796Y-112942331D01*
X139994091Y-112807483D01*
X140000500Y-112747873D01*
X140000499Y-107252128D01*
X139994091Y-107192517D01*
X139961054Y-107103941D01*
X139943797Y-107057671D01*
X139943793Y-107057664D01*
X139857547Y-106942455D01*
X139857544Y-106942452D01*
X139742335Y-106856206D01*
X139742328Y-106856202D01*
X139607482Y-106805908D01*
X139607483Y-106805908D01*
X139547883Y-106799501D01*
X139547881Y-106799500D01*
X139547873Y-106799500D01*
X139547865Y-106799500D01*
X136669336Y-106799500D01*
X136602297Y-106779815D01*
X136581655Y-106763181D01*
X132186818Y-102368344D01*
X132153333Y-102307021D01*
X132150499Y-102280663D01*
X132150499Y-101549998D01*
X132150498Y-101549981D01*
X132139999Y-101447203D01*
X132139998Y-101447200D01*
X132097299Y-101318344D01*
X132084814Y-101280666D01*
X131992712Y-101131344D01*
X131868656Y-101007288D01*
X131719334Y-100915186D01*
X131552797Y-100860001D01*
X131552795Y-100860000D01*
X131450016Y-100849500D01*
X131450009Y-100849500D01*
X131374500Y-100849500D01*
X131307461Y-100829815D01*
X131261706Y-100777011D01*
X131250500Y-100725500D01*
X131250500Y-99449986D01*
X133200001Y-99449986D01*
X133210494Y-99552697D01*
X133265641Y-99719119D01*
X133265643Y-99719124D01*
X133357684Y-99868345D01*
X133481654Y-99992315D01*
X133630875Y-100084356D01*
X133630880Y-100084358D01*
X133797302Y-100139505D01*
X133797309Y-100139506D01*
X133900019Y-100149999D01*
X135749999Y-100149999D01*
X136250000Y-100149999D01*
X138099972Y-100149999D01*
X138099986Y-100149998D01*
X138202697Y-100139505D01*
X138369119Y-100084358D01*
X138369124Y-100084356D01*
X138518345Y-99992315D01*
X138642315Y-99868345D01*
X138734356Y-99719124D01*
X138734358Y-99719119D01*
X138789505Y-99552697D01*
X138789506Y-99552690D01*
X138799999Y-99449986D01*
X138800000Y-99449973D01*
X138800000Y-99350000D01*
X136250000Y-99350000D01*
X136250000Y-100149999D01*
X135749999Y-100149999D01*
X135750000Y-100149998D01*
X135750000Y-99350000D01*
X133200001Y-99350000D01*
X133200001Y-99449986D01*
X131250500Y-99449986D01*
X131250500Y-98215351D01*
X131270185Y-98148312D01*
X131286814Y-98127675D01*
X133089795Y-96324694D01*
X133109719Y-96313815D01*
X133127021Y-96299105D01*
X133139800Y-96297389D01*
X133151114Y-96291212D01*
X133173762Y-96292831D01*
X133196269Y-96289811D01*
X133207945Y-96295276D01*
X133220806Y-96296196D01*
X133238985Y-96309805D01*
X133259550Y-96319431D01*
X133272707Y-96335050D01*
X133276739Y-96338068D01*
X133282412Y-96346320D01*
X133368787Y-96483535D01*
X133376573Y-96511005D01*
X133387254Y-96537479D01*
X133385979Y-96544186D01*
X133387842Y-96550756D01*
X133379541Y-96578073D01*
X133374213Y-96606121D01*
X133368154Y-96615549D01*
X133367529Y-96617608D01*
X133365991Y-96618915D01*
X133361126Y-96626487D01*
X133357297Y-96631330D01*
X133357290Y-96631342D01*
X133357288Y-96631344D01*
X133343940Y-96652985D01*
X133265187Y-96780663D01*
X133265186Y-96780666D01*
X133210001Y-96947203D01*
X133210001Y-96947204D01*
X133210000Y-96947204D01*
X133199500Y-97049983D01*
X133199500Y-97049996D01*
X133199501Y-97750000D01*
X133199501Y-97750019D01*
X133210000Y-97852796D01*
X133210001Y-97852799D01*
X133265185Y-98019331D01*
X133265187Y-98019336D01*
X133274759Y-98034854D01*
X133357288Y-98168656D01*
X133357292Y-98168660D01*
X133361116Y-98173497D01*
X133387254Y-98238294D01*
X133374212Y-98306935D01*
X133361122Y-98327305D01*
X133357687Y-98331649D01*
X133265643Y-98480875D01*
X133265641Y-98480880D01*
X133210494Y-98647302D01*
X133210493Y-98647309D01*
X133200000Y-98750013D01*
X133200000Y-98850000D01*
X138849403Y-98850000D01*
X138916442Y-98869685D01*
X138937084Y-98886319D01*
X139513181Y-99462416D01*
X139546666Y-99523739D01*
X139549500Y-99550097D01*
X139549500Y-102113330D01*
X139549499Y-102113348D01*
X139549499Y-102279054D01*
X139549498Y-102279054D01*
X139590423Y-102431785D01*
X139619358Y-102481900D01*
X139619359Y-102481904D01*
X139619360Y-102481904D01*
X139669479Y-102568714D01*
X139669481Y-102568717D01*
X139788349Y-102687585D01*
X139788355Y-102687590D01*
X145963181Y-108862417D01*
X145996666Y-108923740D01*
X145999500Y-108950098D01*
X145999500Y-112747870D01*
X145999501Y-112747876D01*
X146005908Y-112807483D01*
X146056202Y-112942328D01*
X146056206Y-112942335D01*
X146142452Y-113057544D01*
X146142455Y-113057547D01*
X146257664Y-113143793D01*
X146257671Y-113143797D01*
X146392517Y-113194091D01*
X146392516Y-113194091D01*
X146399444Y-113194835D01*
X146452127Y-113200500D01*
X149447872Y-113200499D01*
X149507483Y-113194091D01*
X149642331Y-113143796D01*
X149757546Y-113057546D01*
X149843796Y-112942331D01*
X149894091Y-112807483D01*
X149900500Y-112747873D01*
X149900499Y-109300095D01*
X149920184Y-109233057D01*
X149936813Y-109212420D01*
X152362416Y-106786818D01*
X152423739Y-106753333D01*
X152450097Y-106750499D01*
X155300002Y-106750499D01*
X155300008Y-106750499D01*
X155402797Y-106739999D01*
X155569334Y-106684814D01*
X155718656Y-106592712D01*
X155842712Y-106468656D01*
X155934814Y-106319334D01*
X155989999Y-106152797D01*
X156000500Y-106050009D01*
X156000500Y-106049986D01*
X158000001Y-106049986D01*
X158010494Y-106152697D01*
X158065641Y-106319119D01*
X158065643Y-106319124D01*
X158157684Y-106468345D01*
X158281654Y-106592315D01*
X158430875Y-106684356D01*
X158430880Y-106684358D01*
X158597302Y-106739505D01*
X158597309Y-106739506D01*
X158700019Y-106749999D01*
X160449999Y-106749999D01*
X160950000Y-106749999D01*
X162699972Y-106749999D01*
X162699986Y-106749998D01*
X162802697Y-106739505D01*
X162969119Y-106684358D01*
X162969124Y-106684356D01*
X163118345Y-106592315D01*
X163242315Y-106468345D01*
X163334356Y-106319124D01*
X163334358Y-106319119D01*
X163389505Y-106152697D01*
X163389506Y-106152690D01*
X163399999Y-106049986D01*
X163400000Y-106049973D01*
X163400000Y-105250000D01*
X160950000Y-105250000D01*
X160950000Y-106749999D01*
X160449999Y-106749999D01*
X160450000Y-106749998D01*
X160450000Y-105250000D01*
X158000001Y-105250000D01*
X158000001Y-106049986D01*
X156000500Y-106049986D01*
X156000499Y-104750000D01*
X156000499Y-103950013D01*
X158000000Y-103950013D01*
X158000000Y-104750000D01*
X160450000Y-104750000D01*
X160950000Y-104750000D01*
X163399999Y-104750000D01*
X163399999Y-103950028D01*
X163399998Y-103950013D01*
X163389505Y-103847302D01*
X163334358Y-103680880D01*
X163334356Y-103680875D01*
X163242315Y-103531654D01*
X163118345Y-103407684D01*
X162969124Y-103315643D01*
X162969119Y-103315641D01*
X162802697Y-103260494D01*
X162802690Y-103260493D01*
X162699986Y-103250000D01*
X160950000Y-103250000D01*
X160950000Y-104750000D01*
X160450000Y-104750000D01*
X160450000Y-103250000D01*
X158700028Y-103250000D01*
X158700012Y-103250001D01*
X158597302Y-103260494D01*
X158430880Y-103315641D01*
X158430875Y-103315643D01*
X158281654Y-103407684D01*
X158157684Y-103531654D01*
X158065643Y-103680875D01*
X158065641Y-103680880D01*
X158010494Y-103847302D01*
X158010493Y-103847309D01*
X158000000Y-103950013D01*
X156000499Y-103950013D01*
X156000499Y-103949998D01*
X156000498Y-103949981D01*
X155989999Y-103847203D01*
X155989998Y-103847200D01*
X155934814Y-103680666D01*
X155842712Y-103531344D01*
X155817982Y-103506614D01*
X155784497Y-103445291D01*
X155789481Y-103375599D01*
X155817982Y-103331252D01*
X161296438Y-97852796D01*
X162732220Y-96417014D01*
X167027500Y-96417014D01*
X167027500Y-96652985D01*
X167058299Y-96886914D01*
X167119370Y-97114837D01*
X167209660Y-97332819D01*
X167209665Y-97332828D01*
X167327644Y-97537171D01*
X167327645Y-97537172D01*
X167390221Y-97618723D01*
X168226458Y-96782487D01*
X168251478Y-96842890D01*
X168322612Y-96949351D01*
X168413149Y-97039888D01*
X168519610Y-97111022D01*
X168580011Y-97136041D01*
X167743775Y-97972277D01*
X167825327Y-98034854D01*
X167825328Y-98034855D01*
X168029671Y-98152834D01*
X168029680Y-98152839D01*
X168247663Y-98243129D01*
X168247661Y-98243129D01*
X168475585Y-98304200D01*
X168709514Y-98334999D01*
X168709529Y-98335000D01*
X168945471Y-98335000D01*
X168945485Y-98334999D01*
X169179414Y-98304200D01*
X169407337Y-98243129D01*
X169625319Y-98152839D01*
X169625328Y-98152834D01*
X169829681Y-98034850D01*
X169911223Y-97972279D01*
X169911223Y-97972276D01*
X169074987Y-97136041D01*
X169135390Y-97111022D01*
X169241851Y-97039888D01*
X169332388Y-96949351D01*
X169403522Y-96842890D01*
X169428541Y-96782488D01*
X170264776Y-97618723D01*
X170264779Y-97618723D01*
X170327350Y-97537181D01*
X170445334Y-97332828D01*
X170445339Y-97332819D01*
X170535629Y-97114837D01*
X170596700Y-96886914D01*
X170627499Y-96652985D01*
X170627500Y-96652971D01*
X170627500Y-96417028D01*
X170627499Y-96417014D01*
X170596700Y-96183085D01*
X170535629Y-95955162D01*
X170445339Y-95737180D01*
X170445334Y-95737171D01*
X170327355Y-95532828D01*
X170327354Y-95532827D01*
X170264777Y-95451275D01*
X169428541Y-96287511D01*
X169403522Y-96227110D01*
X169332388Y-96120649D01*
X169241851Y-96030112D01*
X169135390Y-95958978D01*
X169074988Y-95933958D01*
X169911223Y-95097721D01*
X169829672Y-95035145D01*
X169829671Y-95035144D01*
X169625328Y-94917165D01*
X169625319Y-94917160D01*
X169407336Y-94826870D01*
X169407338Y-94826870D01*
X169179414Y-94765799D01*
X168945485Y-94735000D01*
X168709514Y-94735000D01*
X168475585Y-94765799D01*
X168247662Y-94826870D01*
X168029680Y-94917160D01*
X168029671Y-94917165D01*
X167825328Y-95035144D01*
X167825318Y-95035150D01*
X167743775Y-95097720D01*
X167743775Y-95097721D01*
X168580012Y-95933958D01*
X168519610Y-95958978D01*
X168413149Y-96030112D01*
X168322612Y-96120649D01*
X168251478Y-96227110D01*
X168226458Y-96287511D01*
X167390221Y-95451275D01*
X167390220Y-95451275D01*
X167327650Y-95532818D01*
X167327644Y-95532828D01*
X167209665Y-95737171D01*
X167209660Y-95737180D01*
X167119370Y-95955162D01*
X167058299Y-96183085D01*
X167027500Y-96417014D01*
X162732220Y-96417014D01*
X166815321Y-92333913D01*
X166876642Y-92300430D01*
X166946334Y-92305414D01*
X167002267Y-92347286D01*
X167026684Y-92412750D01*
X167027000Y-92421595D01*
X167027000Y-92555000D01*
X167027001Y-92555019D01*
X167037500Y-92657796D01*
X167037501Y-92657799D01*
X167068980Y-92752795D01*
X167092686Y-92824334D01*
X167184788Y-92973656D01*
X167308844Y-93097712D01*
X167458166Y-93189814D01*
X167624703Y-93244999D01*
X167727491Y-93255500D01*
X169927508Y-93255499D01*
X170030297Y-93244999D01*
X170196834Y-93189814D01*
X170346156Y-93097712D01*
X170470212Y-92973656D01*
X170562314Y-92824334D01*
X170617499Y-92657797D01*
X170628000Y-92555009D01*
X170627999Y-90354992D01*
X170617499Y-90252203D01*
X170562314Y-90085666D01*
X170470212Y-89936344D01*
X170346156Y-89812288D01*
X170196834Y-89720186D01*
X170030297Y-89665001D01*
X170030295Y-89665000D01*
X169927510Y-89654500D01*
X167727498Y-89654500D01*
X167727481Y-89654501D01*
X167624703Y-89665000D01*
X167624700Y-89665001D01*
X167458168Y-89720185D01*
X167458163Y-89720187D01*
X167308842Y-89812289D01*
X167184789Y-89936342D01*
X167092687Y-90085663D01*
X167092686Y-90085666D01*
X167037501Y-90252203D01*
X167037501Y-90252204D01*
X167037500Y-90252204D01*
X167027000Y-90354983D01*
X167027000Y-90730499D01*
X167007315Y-90797538D01*
X166954511Y-90843293D01*
X166903000Y-90854499D01*
X166765943Y-90854499D01*
X166689579Y-90874961D01*
X166613214Y-90895423D01*
X166613209Y-90895426D01*
X166476290Y-90974475D01*
X166476282Y-90974481D01*
X154237582Y-103213181D01*
X154176259Y-103246666D01*
X154149901Y-103249500D01*
X151299998Y-103249500D01*
X151299981Y-103249501D01*
X151197203Y-103260000D01*
X151197200Y-103260001D01*
X151030668Y-103315185D01*
X151030663Y-103315187D01*
X150881342Y-103407289D01*
X150757289Y-103531342D01*
X150665187Y-103680663D01*
X150665185Y-103680668D01*
X150665115Y-103680880D01*
X150610001Y-103847203D01*
X150610001Y-103847204D01*
X150610000Y-103847204D01*
X150599500Y-103949983D01*
X150599500Y-106050001D01*
X150599501Y-106050018D01*
X150610000Y-106152796D01*
X150610001Y-106152799D01*
X150665115Y-106319119D01*
X150665186Y-106319334D01*
X150757096Y-106468345D01*
X150757289Y-106468657D01*
X150782017Y-106493385D01*
X150815502Y-106554708D01*
X150810518Y-106624400D01*
X150782017Y-106668747D01*
X150112180Y-107338584D01*
X150050857Y-107372069D01*
X149981165Y-107367085D01*
X149925232Y-107325213D01*
X149900815Y-107259749D01*
X149900630Y-107254589D01*
X149900499Y-107252141D01*
X149900499Y-107252128D01*
X149894091Y-107192517D01*
X149861054Y-107103941D01*
X149843797Y-107057671D01*
X149843793Y-107057664D01*
X149757547Y-106942455D01*
X149757544Y-106942452D01*
X149642335Y-106856206D01*
X149642328Y-106856202D01*
X149507482Y-106805908D01*
X149507483Y-106805908D01*
X149447883Y-106799501D01*
X149447881Y-106799500D01*
X149447873Y-106799500D01*
X149447864Y-106799500D01*
X146452129Y-106799500D01*
X146452123Y-106799501D01*
X146392516Y-106805908D01*
X146257671Y-106856202D01*
X146257664Y-106856206D01*
X146142455Y-106942452D01*
X146056638Y-107057087D01*
X146000704Y-107098958D01*
X145931012Y-107103941D01*
X145869691Y-107070456D01*
X140786819Y-101987583D01*
X140772115Y-101960655D01*
X140755523Y-101934837D01*
X140754631Y-101928636D01*
X140753334Y-101926260D01*
X140750500Y-101899902D01*
X140750500Y-101723999D01*
X140770185Y-101656960D01*
X140822989Y-101611205D01*
X140874500Y-101599999D01*
X144900000Y-101599999D01*
X145400000Y-101599999D01*
X149649970Y-101599999D01*
X149649984Y-101599998D01*
X149752695Y-101589505D01*
X149919117Y-101534358D01*
X149919122Y-101534356D01*
X150068344Y-101442315D01*
X150192315Y-101318344D01*
X150284356Y-101169122D01*
X150284358Y-101169117D01*
X150339505Y-101002695D01*
X150339506Y-101002688D01*
X150349999Y-100899984D01*
X150350000Y-100899971D01*
X150350000Y-95950000D01*
X145400000Y-95950000D01*
X145400000Y-101599999D01*
X144900000Y-101599999D01*
X144900000Y-95950000D01*
X139950000Y-95950000D01*
X139950000Y-97901403D01*
X139930315Y-97968443D01*
X139877511Y-98014197D01*
X139808353Y-98024141D01*
X139744797Y-97995116D01*
X139738319Y-97989084D01*
X138831837Y-97082602D01*
X138798352Y-97021279D01*
X138796161Y-97007530D01*
X138789999Y-96947203D01*
X138734814Y-96780666D01*
X138642712Y-96631344D01*
X138642710Y-96631342D01*
X138638884Y-96626503D01*
X138612745Y-96561707D01*
X138625787Y-96493065D01*
X138638886Y-96472683D01*
X138642314Y-96468346D01*
X138734356Y-96319124D01*
X138734358Y-96319119D01*
X138789505Y-96152697D01*
X138789506Y-96152690D01*
X138799999Y-96049986D01*
X138800000Y-96049973D01*
X138800000Y-95950000D01*
X136124000Y-95950000D01*
X136056961Y-95930315D01*
X136011206Y-95877511D01*
X136000000Y-95826000D01*
X136000000Y-95574000D01*
X136019685Y-95506961D01*
X136072489Y-95461206D01*
X136124000Y-95450000D01*
X138799999Y-95450000D01*
X138799999Y-95350028D01*
X138799998Y-95350013D01*
X138789505Y-95247302D01*
X138734358Y-95080880D01*
X138734356Y-95080875D01*
X138642314Y-94931653D01*
X138638886Y-94927317D01*
X138612745Y-94862521D01*
X138625786Y-94793879D01*
X138638884Y-94773497D01*
X138642706Y-94768661D01*
X138642712Y-94768656D01*
X138734814Y-94619334D01*
X138789999Y-94452797D01*
X138800500Y-94350009D01*
X138800499Y-93649992D01*
X138789999Y-93547203D01*
X138734814Y-93380666D01*
X138642712Y-93231344D01*
X138642707Y-93231339D01*
X138639209Y-93226915D01*
X138613066Y-93162121D01*
X138626103Y-93093478D01*
X138639209Y-93073085D01*
X138642703Y-93068664D01*
X138642712Y-93068656D01*
X138734814Y-92919334D01*
X138789999Y-92752797D01*
X138800500Y-92650009D01*
X138800499Y-91949992D01*
X138789999Y-91847203D01*
X138734814Y-91680666D01*
X138642712Y-91531344D01*
X138518656Y-91407288D01*
X138369334Y-91315186D01*
X138202797Y-91260001D01*
X138202795Y-91260000D01*
X138100016Y-91249500D01*
X138100009Y-91249500D01*
X136721421Y-91249500D01*
X136660005Y-91232178D01*
X136659746Y-91232688D01*
X136657183Y-91231382D01*
X136656629Y-91231226D01*
X136655407Y-91230477D01*
X136480029Y-91141117D01*
X136292826Y-91080290D01*
X136098422Y-91049500D01*
X136098417Y-91049500D01*
X128869336Y-91049500D01*
X128802297Y-91029815D01*
X128781655Y-91013181D01*
X128268489Y-90500015D01*
X139950000Y-90500015D01*
X139950000Y-95450000D01*
X144900000Y-95450000D01*
X145400000Y-95450000D01*
X150349999Y-95450000D01*
X150349999Y-90500030D01*
X150349998Y-90500015D01*
X150339505Y-90397304D01*
X150284358Y-90230882D01*
X150284356Y-90230877D01*
X150192315Y-90081655D01*
X150068344Y-89957684D01*
X149919122Y-89865643D01*
X149919117Y-89865641D01*
X149752695Y-89810494D01*
X149752688Y-89810493D01*
X149649984Y-89800000D01*
X145400000Y-89800000D01*
X145400000Y-95450000D01*
X144900000Y-95450000D01*
X144900000Y-89800000D01*
X140650030Y-89800000D01*
X140650014Y-89800001D01*
X140547304Y-89810494D01*
X140380882Y-89865641D01*
X140380877Y-89865643D01*
X140231655Y-89957684D01*
X140107684Y-90081655D01*
X140015643Y-90230877D01*
X140015641Y-90230882D01*
X139960494Y-90397304D01*
X139960493Y-90397311D01*
X139950000Y-90500015D01*
X128268489Y-90500015D01*
X127786818Y-90018344D01*
X127753333Y-89957021D01*
X127750499Y-89930663D01*
X127750499Y-88199998D01*
X127750498Y-88199981D01*
X127739999Y-88097203D01*
X127739998Y-88097200D01*
X127684814Y-87930666D01*
X127592712Y-87781344D01*
X127468656Y-87657288D01*
X127319334Y-87565186D01*
X127152797Y-87510001D01*
X127152795Y-87510000D01*
X127050010Y-87499500D01*
X124949998Y-87499500D01*
X124949981Y-87499501D01*
X124847203Y-87510000D01*
X124847200Y-87510001D01*
X124680668Y-87565185D01*
X124680663Y-87565187D01*
X124531342Y-87657289D01*
X124407289Y-87781342D01*
X124315187Y-87930663D01*
X124315186Y-87930666D01*
X124260001Y-88097203D01*
X124260001Y-88097204D01*
X124260000Y-88097204D01*
X124249500Y-88199983D01*
X124249500Y-88625500D01*
X124229815Y-88692539D01*
X124177011Y-88738294D01*
X124125500Y-88749500D01*
X113184078Y-88749500D01*
X112989673Y-88780290D01*
X112802469Y-88841117D01*
X112627091Y-88930478D01*
X112467860Y-89046165D01*
X112467855Y-89046169D01*
X111895843Y-89618181D01*
X111834520Y-89651666D01*
X111808162Y-89654500D01*
X110727498Y-89654500D01*
X110727481Y-89654501D01*
X110624703Y-89665000D01*
X110624700Y-89665001D01*
X110458168Y-89720185D01*
X110458163Y-89720187D01*
X110308842Y-89812289D01*
X110184789Y-89936342D01*
X110092687Y-90085663D01*
X110092686Y-90085666D01*
X110037501Y-90252203D01*
X110037501Y-90252204D01*
X110037500Y-90252204D01*
X110027000Y-90354983D01*
X102000000Y-90354983D01*
X102000000Y-83878711D01*
X105149500Y-83878711D01*
X105149500Y-84121288D01*
X105181161Y-84361785D01*
X105243947Y-84596104D01*
X105336773Y-84820205D01*
X105336776Y-84820212D01*
X105458064Y-85030289D01*
X105458066Y-85030292D01*
X105458067Y-85030293D01*
X105605733Y-85222736D01*
X105605739Y-85222743D01*
X105777256Y-85394260D01*
X105777262Y-85394265D01*
X105969711Y-85541936D01*
X106179788Y-85663224D01*
X106403900Y-85756054D01*
X106638211Y-85818838D01*
X106818586Y-85842584D01*
X106878711Y-85850500D01*
X106878712Y-85850500D01*
X107121289Y-85850500D01*
X107169388Y-85844167D01*
X107361789Y-85818838D01*
X107596100Y-85756054D01*
X107820212Y-85663224D01*
X108030289Y-85541936D01*
X108222738Y-85394265D01*
X108394265Y-85222738D01*
X108541936Y-85030289D01*
X108663224Y-84820212D01*
X108756054Y-84596100D01*
X108818838Y-84361789D01*
X108850500Y-84121288D01*
X108850500Y-83878712D01*
X108850500Y-83878711D01*
X171149500Y-83878711D01*
X171149500Y-84121288D01*
X171181161Y-84361785D01*
X171243947Y-84596104D01*
X171336773Y-84820205D01*
X171336776Y-84820212D01*
X171458064Y-85030289D01*
X171458066Y-85030292D01*
X171458067Y-85030293D01*
X171605733Y-85222736D01*
X171605739Y-85222743D01*
X171777256Y-85394260D01*
X171777262Y-85394265D01*
X171969711Y-85541936D01*
X172179788Y-85663224D01*
X172403900Y-85756054D01*
X172638211Y-85818838D01*
X172818586Y-85842584D01*
X172878711Y-85850500D01*
X172878712Y-85850500D01*
X173121289Y-85850500D01*
X173169388Y-85844167D01*
X173361789Y-85818838D01*
X173596100Y-85756054D01*
X173820212Y-85663224D01*
X174030289Y-85541936D01*
X174222738Y-85394265D01*
X174394265Y-85222738D01*
X174541936Y-85030289D01*
X174663224Y-84820212D01*
X174756054Y-84596100D01*
X174818838Y-84361789D01*
X174850500Y-84121288D01*
X174850500Y-83878712D01*
X174818838Y-83638211D01*
X174756054Y-83403900D01*
X174663224Y-83179788D01*
X174541936Y-82969711D01*
X174394265Y-82777262D01*
X174394260Y-82777256D01*
X174222743Y-82605739D01*
X174222736Y-82605733D01*
X174030293Y-82458067D01*
X174030292Y-82458066D01*
X174030289Y-82458064D01*
X173820212Y-82336776D01*
X173820205Y-82336773D01*
X173596104Y-82243947D01*
X173361785Y-82181161D01*
X173121289Y-82149500D01*
X173121288Y-82149500D01*
X172878712Y-82149500D01*
X172878711Y-82149500D01*
X172638214Y-82181161D01*
X172403895Y-82243947D01*
X172179794Y-82336773D01*
X172179785Y-82336777D01*
X171969706Y-82458067D01*
X171777263Y-82605733D01*
X171777256Y-82605739D01*
X171605739Y-82777256D01*
X171605733Y-82777263D01*
X171458067Y-82969706D01*
X171336777Y-83179785D01*
X171336773Y-83179794D01*
X171243947Y-83403895D01*
X171181161Y-83638214D01*
X171149500Y-83878711D01*
X108850500Y-83878711D01*
X108818838Y-83638211D01*
X108756054Y-83403900D01*
X108663224Y-83179788D01*
X108541936Y-82969711D01*
X108394265Y-82777262D01*
X108394260Y-82777256D01*
X108222743Y-82605739D01*
X108222736Y-82605733D01*
X108030293Y-82458067D01*
X108030292Y-82458066D01*
X108030289Y-82458064D01*
X107820212Y-82336776D01*
X107820205Y-82336773D01*
X107596104Y-82243947D01*
X107361785Y-82181161D01*
X107121289Y-82149500D01*
X107121288Y-82149500D01*
X106878712Y-82149500D01*
X106878711Y-82149500D01*
X106638214Y-82181161D01*
X106403895Y-82243947D01*
X106179794Y-82336773D01*
X106179785Y-82336777D01*
X105969706Y-82458067D01*
X105777263Y-82605733D01*
X105777256Y-82605739D01*
X105605739Y-82777256D01*
X105605733Y-82777263D01*
X105458067Y-82969706D01*
X105336777Y-83179785D01*
X105336773Y-83179794D01*
X105243947Y-83403895D01*
X105181161Y-83638214D01*
X105149500Y-83878711D01*
X102000000Y-83878711D01*
X102000000Y-79124000D01*
X102019685Y-79056961D01*
X102072489Y-79011206D01*
X102124000Y-79000000D01*
X177876000Y-79000000D01*
X177943039Y-79019685D01*
G37*
%TD.AperFunction*%
%TD*%
M02*
